<mxfile host="app.diagrams.net" agent="Mozilla/5.0 (X11; Linux x86_64) AppleWebKit/537.36 (KHTML, like Gecko) Chrome/131.0.0.0 Safari/537.36" version="27.2.0">
  <diagram name="Page-1" id="2YBvvXClWsGukQMizWep">
    <mxGraphModel dx="2087" dy="1798" grid="1" gridSize="10" guides="1" tooltips="1" connect="1" arrows="1" fold="1" page="1" pageScale="1" pageWidth="850" pageHeight="1100" math="0" shadow="0">
      <root>
        <mxCell id="0" />
        <mxCell id="1" parent="0" />
        <mxCell id="IhIsR1QIYRkQV1s-NoY3-30" value="" style="rounded=1;whiteSpace=wrap;html=1;dashed=1;fillColor=light-dark(#FFFFFF,#666666);" vertex="1" parent="1">
          <mxGeometry x="-144" y="329" width="120" height="367" as="geometry" />
        </mxCell>
        <mxCell id="IhIsR1QIYRkQV1s-NoY3-20" value="" style="rounded=1;whiteSpace=wrap;html=1;dashed=1;fillColor=light-dark(#FFFFFF,#666666);" vertex="1" parent="1">
          <mxGeometry x="494" y="-260" width="292" height="207" as="geometry" />
        </mxCell>
        <mxCell id="wWNHtJIBtszE9w1KMmxF-52" style="edgeStyle=orthogonalEdgeStyle;rounded=0;orthogonalLoop=1;jettySize=auto;html=1;exitX=0.75;exitY=0;exitDx=0;exitDy=0;fillColor=#60a917;strokeColor=#2D7600;strokeWidth=5;entryX=0.83;entryY=0;entryDx=0;entryDy=0;entryPerimeter=0;" parent="1" source="wWNHtJIBtszE9w1KMmxF-1" target="wWNHtJIBtszE9w1KMmxF-14" edge="1">
          <mxGeometry relative="1" as="geometry">
            <Array as="points">
              <mxPoint x="736" y="280" />
              <mxPoint x="550" y="280" />
              <mxPoint x="550" y="450" />
              <mxPoint x="507" y="450" />
            </Array>
          </mxGeometry>
        </mxCell>
        <mxCell id="wWNHtJIBtszE9w1KMmxF-54" value="Обработка&lt;br&gt;&amp;nbsp;обращения" style="edgeLabel;html=1;align=center;verticalAlign=middle;resizable=0;points=[];" parent="wWNHtJIBtszE9w1KMmxF-52" vertex="1" connectable="0">
          <mxGeometry x="0.478" y="-6" relative="1" as="geometry">
            <mxPoint y="-1" as="offset" />
          </mxGeometry>
        </mxCell>
        <mxCell id="IhIsR1QIYRkQV1s-NoY3-27" style="edgeStyle=orthogonalEdgeStyle;rounded=0;orthogonalLoop=1;jettySize=auto;html=1;entryX=0.5;entryY=1;entryDx=0;entryDy=0;strokeWidth=5;" edge="1" parent="1" source="wWNHtJIBtszE9w1KMmxF-2" target="IhIsR1QIYRkQV1s-NoY3-30">
          <mxGeometry relative="1" as="geometry" />
        </mxCell>
        <mxCell id="IhIsR1QIYRkQV1s-NoY3-28" value="реклама" style="edgeLabel;html=1;align=center;verticalAlign=middle;resizable=0;points=[];" vertex="1" connectable="0" parent="IhIsR1QIYRkQV1s-NoY3-27">
          <mxGeometry x="-0.2791" y="-6" relative="1" as="geometry">
            <mxPoint as="offset" />
          </mxGeometry>
        </mxCell>
        <mxCell id="wWNHtJIBtszE9w1KMmxF-2" value="web сайт" style="rounded=1;whiteSpace=wrap;html=1;fillColor=#76608a;strokeColor=#432D57;fontColor=#ffffff;" parent="1" vertex="1">
          <mxGeometry x="98" y="740" width="140" height="125" as="geometry" />
        </mxCell>
        <mxCell id="wWNHtJIBtszE9w1KMmxF-41" style="edgeStyle=orthogonalEdgeStyle;rounded=0;orthogonalLoop=1;jettySize=auto;html=1;fillColor=#60a917;strokeColor=#2D7600;strokeWidth=5;entryX=0.75;entryY=0;entryDx=0;entryDy=0;" parent="1" source="wWNHtJIBtszE9w1KMmxF-3" target="wWNHtJIBtszE9w1KMmxF-1" edge="1">
          <mxGeometry relative="1" as="geometry" />
        </mxCell>
        <mxCell id="wWNHtJIBtszE9w1KMmxF-42" value="передача&lt;br&gt;&amp;nbsp;обращения&lt;br&gt;в бэк-офис" style="edgeLabel;html=1;align=center;verticalAlign=middle;resizable=0;points=[];" parent="wWNHtJIBtszE9w1KMmxF-41" vertex="1" connectable="0">
          <mxGeometry x="-0.2863" y="4" relative="1" as="geometry">
            <mxPoint x="-4" y="23" as="offset" />
          </mxGeometry>
        </mxCell>
        <mxCell id="wWNHtJIBtszE9w1KMmxF-3" value="Call-центр" style="rounded=1;whiteSpace=wrap;html=1;fillColor=#1ba1e2;fontColor=#ffffff;strokeColor=#006EAF;fontSize=20;fontStyle=1" parent="1" vertex="1">
          <mxGeometry x="698" y="-158.5" width="80" height="80" as="geometry" />
        </mxCell>
        <mxCell id="wWNHtJIBtszE9w1KMmxF-4" value="Партнерский&amp;nbsp;&lt;div&gt;Call-центр&lt;/div&gt;" style="rounded=1;whiteSpace=wrap;html=1;fillColor=light-dark(#6A00FF,#3333FF);strokeColor=#3700CC;fontColor=light-dark(#FFFFFF,#D5E8D4);fontSize=14;fontStyle=1" parent="1" vertex="1">
          <mxGeometry x="698" y="-250.5" width="80" height="80" as="geometry" />
        </mxCell>
        <mxCell id="wWNHtJIBtszE9w1KMmxF-56" style="edgeStyle=orthogonalEdgeStyle;rounded=0;orthogonalLoop=1;jettySize=auto;html=1;strokeWidth=5;fillColor=#60a917;strokeColor=#2D7600;entryX=0.67;entryY=0;entryDx=0;entryDy=0;entryPerimeter=0;" parent="1" source="wWNHtJIBtszE9w1KMmxF-5" target="wWNHtJIBtszE9w1KMmxF-82" edge="1">
          <mxGeometry relative="1" as="geometry">
            <mxPoint x="-219.5" y="350" as="targetPoint" />
          </mxGeometry>
        </mxCell>
        <mxCell id="wWNHtJIBtszE9w1KMmxF-57" value="Информация о ставке&lt;br&gt;депозита&lt;br&gt;&amp;nbsp;и времени визита в офис" style="edgeLabel;html=1;align=center;verticalAlign=middle;resizable=0;points=[];" parent="wWNHtJIBtszE9w1KMmxF-56" vertex="1" connectable="0">
          <mxGeometry x="-0.0023" y="-6" relative="1" as="geometry">
            <mxPoint x="59" y="6" as="offset" />
          </mxGeometry>
        </mxCell>
        <mxCell id="wWNHtJIBtszE9w1KMmxF-5" value="SMS" style="rounded=1;whiteSpace=wrap;html=1;fillColor=light-dark(#1A1A1A,#CCCC00);fontColor=#ffffff;strokeColor=#2D7600;fontSize=20;fontStyle=1" parent="1" vertex="1">
          <mxGeometry x="177.25" y="222" width="97.5" height="90" as="geometry" />
        </mxCell>
        <mxCell id="wWNHtJIBtszE9w1KMmxF-80" style="edgeStyle=orthogonalEdgeStyle;rounded=0;orthogonalLoop=1;jettySize=auto;html=1;fillColor=#1ba1e2;strokeColor=#006EAF;strokeWidth=5;entryX=1;entryY=0.33;entryDx=0;entryDy=0;entryPerimeter=0;exitX=0;exitY=0.5;exitDx=0;exitDy=0;exitPerimeter=0;" parent="1" source="wWNHtJIBtszE9w1KMmxF-16" target="wWNHtJIBtszE9w1KMmxF-14" edge="1">
          <mxGeometry relative="1" as="geometry">
            <Array as="points" />
          </mxGeometry>
        </mxCell>
        <mxCell id="wWNHtJIBtszE9w1KMmxF-81" value="общ.ставка" style="edgeLabel;html=1;align=center;verticalAlign=middle;resizable=0;points=[];" parent="wWNHtJIBtszE9w1KMmxF-80" vertex="1" connectable="0">
          <mxGeometry x="-0.1365" relative="1" as="geometry">
            <mxPoint x="-73" y="-6" as="offset" />
          </mxGeometry>
        </mxCell>
        <mxCell id="wWNHtJIBtszE9w1KMmxF-10" value="Партнерский&lt;div&gt;call-center&lt;/div&gt;" style="sketch=0;pointerEvents=1;shadow=0;dashed=0;html=1;strokeColor=none;fillColor=#505050;labelPosition=center;verticalLabelPosition=bottom;verticalAlign=top;outlineConnect=0;align=center;shape=mxgraph.office.users.call_center_agent;" parent="1" vertex="1">
          <mxGeometry x="544" y="-250.5" width="46" height="55" as="geometry" />
        </mxCell>
        <mxCell id="wWNHtJIBtszE9w1KMmxF-38" style="edgeStyle=orthogonalEdgeStyle;rounded=0;orthogonalLoop=1;jettySize=auto;html=1;strokeColor=#2D7600;strokeWidth=5;fillColor=#60a917;" parent="1" source="wWNHtJIBtszE9w1KMmxF-11" target="wWNHtJIBtszE9w1KMmxF-3" edge="1">
          <mxGeometry relative="1" as="geometry" />
        </mxCell>
        <mxCell id="wWNHtJIBtszE9w1KMmxF-39" value="Регистрация&amp;nbsp;&lt;br&gt;обращения" style="edgeLabel;html=1;align=center;verticalAlign=middle;resizable=0;points=[];" parent="wWNHtJIBtszE9w1KMmxF-38" vertex="1" connectable="0">
          <mxGeometry x="-0.378" y="6" relative="1" as="geometry">
            <mxPoint x="10" as="offset" />
          </mxGeometry>
        </mxCell>
        <mxCell id="wWNHtJIBtszE9w1KMmxF-11" value="Call-center" style="sketch=0;pointerEvents=1;shadow=0;dashed=0;html=1;strokeColor=none;fillColor=#505050;labelPosition=center;verticalLabelPosition=bottom;verticalAlign=top;outlineConnect=0;align=center;shape=mxgraph.office.users.conferencing_attendant;fontStyle=1;fontSize=20;points=[[0,0.25,0,0,0],[0,0.5,0,0,0],[0,0.75,0,0,0]];" parent="1" vertex="1">
          <mxGeometry x="535.5" y="-148" width="53" height="59" as="geometry" />
        </mxCell>
        <mxCell id="wWNHtJIBtszE9w1KMmxF-83" style="edgeStyle=orthogonalEdgeStyle;rounded=0;orthogonalLoop=1;jettySize=auto;html=1;entryX=0;entryY=0.75;entryDx=0;entryDy=0;fillColor=#60a917;strokeColor=#2D7600;strokeWidth=5;exitX=0.67;exitY=0;exitDx=0;exitDy=0;exitPerimeter=0;" parent="1" source="wWNHtJIBtszE9w1KMmxF-13" target="wWNHtJIBtszE9w1KMmxF-68" edge="1">
          <mxGeometry relative="1" as="geometry">
            <Array as="points">
              <mxPoint x="178" y="400" />
              <mxPoint x="310" y="400" />
              <mxPoint x="310" y="288" />
            </Array>
          </mxGeometry>
        </mxCell>
        <mxCell id="wWNHtJIBtszE9w1KMmxF-84" value="подготовка договора&lt;br&gt;на основе оферты" style="edgeLabel;html=1;align=center;verticalAlign=middle;resizable=0;points=[];" parent="wWNHtJIBtszE9w1KMmxF-83" vertex="1" connectable="0">
          <mxGeometry x="-0.6981" y="2" relative="1" as="geometry">
            <mxPoint x="62" y="-90" as="offset" />
          </mxGeometry>
        </mxCell>
        <mxCell id="wWNHtJIBtszE9w1KMmxF-13" value="&lt;span style=&quot;text-wrap-mode: wrap;&quot;&gt;Управление&lt;/span&gt;&lt;div&gt;&lt;span style=&quot;text-wrap-mode: wrap;&quot;&gt;обслуживанием&lt;/span&gt;&lt;div&gt;&lt;span style=&quot;text-wrap-mode: wrap;&quot;&gt;в сети отделений&lt;/span&gt;&lt;/div&gt;&lt;/div&gt;" style="sketch=0;pointerEvents=1;shadow=0;dashed=0;html=1;strokeColor=none;fillColor=#505050;labelPosition=center;verticalLabelPosition=bottom;verticalAlign=top;outlineConnect=0;align=center;shape=mxgraph.office.users.tenant_admin;fontSize=16;fontStyle=1;points=[[0,0.17,0,0,0],[0,0.33,0,0,0],[0,0.5,0,0,0],[0,0.67,0,0,0],[0,0.83,0,0,0],[0.17,0,0,0,0],[0.33,0,0,0,0],[0.5,0,0,0,0],[0.67,0,0,0,0],[0.83,0,0,0,0],[1,0.17,0,0,0],[1,0.33,0,0,0],[1,0.5,0,0,0],[1,0.67,0,0,0],[1,0.83,0,0,0]];" parent="1" vertex="1">
          <mxGeometry x="140" y="557" width="56" height="58" as="geometry" />
        </mxCell>
        <mxCell id="wWNHtJIBtszE9w1KMmxF-69" style="edgeStyle=orthogonalEdgeStyle;rounded=0;orthogonalLoop=1;jettySize=auto;html=1;fillColor=#60a917;strokeColor=#2D7600;strokeWidth=5;exitX=0.17;exitY=0;exitDx=0;exitDy=0;exitPerimeter=0;" parent="1" source="wWNHtJIBtszE9w1KMmxF-14" target="wWNHtJIBtszE9w1KMmxF-68" edge="1">
          <mxGeometry relative="1" as="geometry">
            <Array as="points">
              <mxPoint x="470" y="550" />
            </Array>
          </mxGeometry>
        </mxCell>
        <mxCell id="wWNHtJIBtszE9w1KMmxF-72" value="Подготовка&lt;br&gt;оферты" style="edgeLabel;html=1;align=center;verticalAlign=middle;resizable=0;points=[];" parent="wWNHtJIBtszE9w1KMmxF-69" vertex="1" connectable="0">
          <mxGeometry x="-0.2233" y="-4" relative="1" as="geometry">
            <mxPoint x="-4" y="-48" as="offset" />
          </mxGeometry>
        </mxCell>
        <mxCell id="wWNHtJIBtszE9w1KMmxF-14" value="&lt;span style=&quot;text-wrap-mode: wrap;&quot;&gt;Управление&lt;/span&gt;&lt;div&gt;&lt;span style=&quot;text-wrap-mode: wrap;&quot;&gt;&amp;nbsp;обслуживанием&amp;nbsp;&lt;/span&gt;&lt;/div&gt;&lt;div&gt;&lt;span style=&quot;text-wrap-mode: wrap;&quot;&gt;депозитных продуктов&lt;/span&gt;&lt;/div&gt;" style="sketch=0;pointerEvents=1;shadow=0;dashed=0;html=1;strokeColor=none;fillColor=#505050;labelPosition=center;verticalLabelPosition=bottom;verticalAlign=top;outlineConnect=0;align=center;shape=mxgraph.office.users.writer;points=[[0,0.17,0,0,0],[0,0.33,0,0,0],[0,0.5,0,0,0],[0,0.67,0,0,0],[0,0.83,0,0,0],[0.17,0,0,0,0],[0.17,1,0,0,0],[0.33,0,0,0,0],[0.33,1,0,0,0],[0.5,0,0,0,0],[0.5,1,0,0,0],[0.67,0,0,0,0],[0.67,1,0,0,0],[0.83,0,0,0,0],[0.83,1,0,0,0],[1,0.17,0,0,0],[1,0.33,0,0,0],[1,0.5,0,0,0],[1,0.67,0,0,0],[1,0.83,0,0,0]];fontStyle=1;fontSize=14;" parent="1" vertex="1">
          <mxGeometry x="462" y="554" width="54" height="59" as="geometry" />
        </mxCell>
        <mxCell id="wWNHtJIBtszE9w1KMmxF-25" value="" style="edgeStyle=orthogonalEdgeStyle;rounded=0;orthogonalLoop=1;jettySize=auto;html=1;endArrow=classic;endFill=1;startArrow=classic;startFill=1;strokeWidth=5;fillColor=#1ba1e2;strokeColor=#006EAF;" parent="1" source="wWNHtJIBtszE9w1KMmxF-16" edge="1">
          <mxGeometry relative="1" as="geometry">
            <Array as="points" />
            <mxPoint x="750" y="530" as="sourcePoint" />
            <mxPoint x="780" y="370" as="targetPoint" />
          </mxGeometry>
        </mxCell>
        <mxCell id="wWNHtJIBtszE9w1KMmxF-29" value="Расчет&lt;br&gt;общих&lt;br&gt;ставок" style="edgeLabel;html=1;align=center;verticalAlign=middle;resizable=0;points=[];" parent="wWNHtJIBtszE9w1KMmxF-25" vertex="1" connectable="0">
          <mxGeometry x="0.3101" y="-4" relative="1" as="geometry">
            <mxPoint x="-1" y="63" as="offset" />
          </mxGeometry>
        </mxCell>
        <mxCell id="IhIsR1QIYRkQV1s-NoY3-15" style="edgeStyle=orthogonalEdgeStyle;rounded=0;orthogonalLoop=1;jettySize=auto;html=1;strokeWidth=5;startArrow=classic;startFill=1;strokeColor=light-dark(#000000,#660000);entryX=1;entryY=0.67;entryDx=0;entryDy=0;entryPerimeter=0;exitX=0;exitY=0.83;exitDx=0;exitDy=0;exitPerimeter=0;" edge="1" parent="1" source="wWNHtJIBtszE9w1KMmxF-16" target="wWNHtJIBtszE9w1KMmxF-14">
          <mxGeometry relative="1" as="geometry">
            <mxPoint x="760" y="675.5" as="sourcePoint" />
            <mxPoint x="530" y="676" as="targetPoint" />
          </mxGeometry>
        </mxCell>
        <mxCell id="IhIsR1QIYRkQV1s-NoY3-22" value="инд. ставка" style="edgeLabel;html=1;align=center;verticalAlign=middle;resizable=0;points=[];" vertex="1" connectable="0" parent="IhIsR1QIYRkQV1s-NoY3-15">
          <mxGeometry x="0.6478" y="-3" relative="1" as="geometry">
            <mxPoint x="9" y="-3" as="offset" />
          </mxGeometry>
        </mxCell>
        <mxCell id="IhIsR1QIYRkQV1s-NoY3-33" style="edgeStyle=orthogonalEdgeStyle;rounded=0;orthogonalLoop=1;jettySize=auto;html=1;exitX=0.17;exitY=1;exitDx=0;exitDy=0;exitPerimeter=0;entryX=0.25;entryY=0;entryDx=0;entryDy=0;strokeWidth=5;fillColor=#60a917;strokeColor=light-dark(#2D7600,#660000);" edge="1" parent="1" source="wWNHtJIBtszE9w1KMmxF-16" target="IhIsR1QIYRkQV1s-NoY3-32">
          <mxGeometry relative="1" as="geometry" />
        </mxCell>
        <mxCell id="IhIsR1QIYRkQV1s-NoY3-34" value="расчет ставок" style="edgeLabel;html=1;align=center;verticalAlign=middle;resizable=0;points=[];" vertex="1" connectable="0" parent="IhIsR1QIYRkQV1s-NoY3-33">
          <mxGeometry x="0.3453" y="-1" relative="1" as="geometry">
            <mxPoint as="offset" />
          </mxGeometry>
        </mxCell>
        <mxCell id="IhIsR1QIYRkQV1s-NoY3-35" style="edgeStyle=orthogonalEdgeStyle;rounded=0;orthogonalLoop=1;jettySize=auto;html=1;exitX=0.83;exitY=1;exitDx=0;exitDy=0;exitPerimeter=0;entryX=0.75;entryY=0;entryDx=0;entryDy=0;strokeWidth=5;strokeColor=#006EAF;fillColor=#1ba1e2;" edge="1" parent="1" source="wWNHtJIBtszE9w1KMmxF-16" target="IhIsR1QIYRkQV1s-NoY3-32">
          <mxGeometry relative="1" as="geometry" />
        </mxCell>
        <mxCell id="wWNHtJIBtszE9w1KMmxF-16" value="&lt;span style=&quot;text-wrap-mode: wrap;&quot;&gt;Управление&lt;br&gt;обслуживанием&lt;br&gt;&amp;nbsp;кредитных&lt;br&gt;&amp;nbsp;продуктов&lt;/span&gt;" style="sketch=0;pointerEvents=1;shadow=0;dashed=0;html=1;strokeColor=none;fillColor=#505050;labelPosition=center;verticalLabelPosition=bottom;verticalAlign=top;outlineConnect=0;align=center;shape=mxgraph.office.users.user;fontSize=17;fontStyle=1;points=[[0,0.17,0,0,0],[0,0.33,0,0,0],[0,0.5,0,0,0],[0,0.67,0,0,0],[0,0.83,0,0,0],[0.17,0,0,0,0],[0.17,1,0,0,0],[0.33,0,0,0,0],[0.33,1,0,0,0],[0.5,0,0,0,0],[0.5,1,0,0,0],[0.67,0,0,0,0],[0.67,1,0,0,0],[0.83,0,0,0,0],[0.83,1,0,0,0],[1,0.17,0,0,0],[1,0.33,0,0,0],[1,0.5,0,0,0],[1,0.67,0,0,0],[1,0.83,0,0,0]];" parent="1" vertex="1">
          <mxGeometry x="740" y="549" width="46" height="50" as="geometry" />
        </mxCell>
        <mxCell id="wWNHtJIBtszE9w1KMmxF-23" value="Подписание&lt;br&gt;документов" style="edgeStyle=orthogonalEdgeStyle;rounded=0;orthogonalLoop=1;jettySize=auto;html=1;fillColor=#60a917;strokeColor=#2D7600;strokeWidth=5;exitX=1;exitY=0.67;exitDx=0;exitDy=0;exitPerimeter=0;entryX=0.33;entryY=0;entryDx=0;entryDy=0;entryPerimeter=0;startArrow=classic;startFill=1;endArrow=none;endFill=0;" parent="1" source="wWNHtJIBtszE9w1KMmxF-82" target="wWNHtJIBtszE9w1KMmxF-13" edge="1">
          <mxGeometry x="-0.3619" y="4" relative="1" as="geometry">
            <mxPoint x="-170" y="410.0588235294117" as="sourcePoint" />
            <mxPoint x="100" y="396" as="targetPoint" />
            <Array as="points">
              <mxPoint x="159" y="397" />
            </Array>
            <mxPoint x="1" as="offset" />
          </mxGeometry>
        </mxCell>
        <mxCell id="wWNHtJIBtszE9w1KMmxF-1" value="&lt;span style=&quot;box-sizing: inherit; white-space-collapse: preserve-breaks;&quot;&gt;&lt;font face=&quot;Helvetica&quot; style=&quot;color: light-dark(rgb(214, 214, 214), rgb(230, 208, 222));&quot;&gt;Автоматизированная банковская система (АБС)&lt;/font&gt;&lt;/span&gt;" style="rounded=1;whiteSpace=wrap;html=1;fillColor=#cce5ff;strokeColor=#36393d;align=center;opacity=70;fontSize=20;fontStyle=1" parent="1" vertex="1">
          <mxGeometry x="425" y="50" width="415" height="320" as="geometry" />
        </mxCell>
        <mxCell id="wWNHtJIBtszE9w1KMmxF-64" style="edgeStyle=orthogonalEdgeStyle;rounded=0;orthogonalLoop=1;jettySize=auto;html=1;exitX=0.33;exitY=0;exitDx=0;exitDy=0;exitPerimeter=0;entryX=0;entryY=0.5;entryDx=0;entryDy=0;entryPerimeter=0;strokeWidth=5;fillColor=#60a917;strokeColor=#2D7600;" parent="1" source="wWNHtJIBtszE9w1KMmxF-82" target="wWNHtJIBtszE9w1KMmxF-11" edge="1">
          <mxGeometry relative="1" as="geometry">
            <mxPoint x="-350.5" y="354" as="sourcePoint" />
          </mxGeometry>
        </mxCell>
        <mxCell id="wWNHtJIBtszE9w1KMmxF-65" value="Запрос открытия&lt;br&gt;депозита" style="edgeLabel;html=1;align=center;verticalAlign=middle;resizable=0;points=[];" parent="wWNHtJIBtszE9w1KMmxF-64" vertex="1" connectable="0">
          <mxGeometry x="0.0178" y="4" relative="1" as="geometry">
            <mxPoint x="100" y="-1" as="offset" />
          </mxGeometry>
        </mxCell>
        <mxCell id="wWNHtJIBtszE9w1KMmxF-71" style="edgeStyle=orthogonalEdgeStyle;rounded=0;orthogonalLoop=1;jettySize=auto;html=1;entryX=1;entryY=0.5;entryDx=0;entryDy=0;fillColor=#60a917;strokeColor=#2D7600;strokeWidth=5;exitX=0;exitY=0.25;exitDx=0;exitDy=0;" parent="1" source="wWNHtJIBtszE9w1KMmxF-68" target="wWNHtJIBtszE9w1KMmxF-5" edge="1">
          <mxGeometry relative="1" as="geometry" />
        </mxCell>
        <mxCell id="wWNHtJIBtszE9w1KMmxF-68" value="Оферта для клиента" style="shape=document;whiteSpace=wrap;html=1;boundedLbl=1;fillColor=#60a917;fontColor=#ffffff;strokeColor=#2D7600;" parent="1" vertex="1">
          <mxGeometry x="430" y="258" width="80" height="40" as="geometry" />
        </mxCell>
        <mxCell id="wWNHtJIBtszE9w1KMmxF-82" value="Клиент&lt;br&gt;&lt;font&gt;&lt;span&gt;call-центра&lt;/span&gt;&lt;/font&gt;" style="sketch=0;pointerEvents=1;shadow=0;dashed=0;html=1;strokeColor=none;labelPosition=center;verticalLabelPosition=bottom;verticalAlign=top;outlineConnect=0;align=center;shape=mxgraph.office.users.user;fillColor=#2072B8;fontSize=20;fontStyle=1;points=[[0.17,0,0,0,0],[0.33,0,0,0,0],[0.5,0,0,0,0],[0.67,0,0,0,0],[0.83,0,0,0,0],[1,0.17,0,0,0],[1,0.33,0,0,0],[1,0.5,0,0,0],[1,0.67,0,0,0],[1,0.83,0,0,0]];" parent="1" vertex="1">
          <mxGeometry x="-109" y="363" width="46" height="50" as="geometry" />
        </mxCell>
        <mxCell id="IhIsR1QIYRkQV1s-NoY3-1" value="Клиент&lt;br&gt;офиса" style="sketch=0;pointerEvents=1;shadow=0;dashed=0;html=1;strokeColor=none;labelPosition=center;verticalLabelPosition=bottom;verticalAlign=top;outlineConnect=0;align=center;shape=mxgraph.office.users.user;fillColor=#2072B8;fontSize=20;fontStyle=1;points=[[0.17,0,0,0,0],[0.33,0,0,0,0],[0.5,0,0,0,0],[0.67,0,0,0,0],[0.83,0,0,0,0],[1,0.17,0,0,0],[1,0.33,0,0,0],[1,0.5,0,0,0],[1,0.67,0,0,0],[1,0.83,0,0,0]];" vertex="1" parent="1">
          <mxGeometry x="-103" y="561" width="46" height="50" as="geometry" />
        </mxCell>
        <mxCell id="IhIsR1QIYRkQV1s-NoY3-4" style="edgeStyle=orthogonalEdgeStyle;rounded=0;orthogonalLoop=1;jettySize=auto;html=1;strokeWidth=5;strokeColor=light-dark(#000000,#660000);exitX=1;exitY=0.5;exitDx=0;exitDy=0;exitPerimeter=0;" edge="1" parent="1" source="IhIsR1QIYRkQV1s-NoY3-1">
          <mxGeometry relative="1" as="geometry">
            <mxPoint x="20" y="620" as="sourcePoint" />
            <mxPoint x="140" y="587" as="targetPoint" />
            <Array as="points">
              <mxPoint x="10" y="586" />
            </Array>
          </mxGeometry>
        </mxCell>
        <mxCell id="IhIsR1QIYRkQV1s-NoY3-5" value="Запрос открытия&lt;br&gt;&amp;nbsp;депозита" style="edgeLabel;html=1;align=center;verticalAlign=middle;resizable=0;points=[];" vertex="1" connectable="0" parent="IhIsR1QIYRkQV1s-NoY3-4">
          <mxGeometry x="-0.5964" y="2" relative="1" as="geometry">
            <mxPoint x="56" y="-3" as="offset" />
          </mxGeometry>
        </mxCell>
        <mxCell id="IhIsR1QIYRkQV1s-NoY3-10" style="edgeStyle=orthogonalEdgeStyle;rounded=0;orthogonalLoop=1;jettySize=auto;html=1;exitX=0.83;exitY=1;exitDx=0;exitDy=0;exitPerimeter=0;entryX=1;entryY=0.5;entryDx=0;entryDy=0;entryPerimeter=0;strokeColor=light-dark(#000000,#660000);strokeWidth=5;startArrow=classic;startFill=1;" edge="1" parent="1" source="wWNHtJIBtszE9w1KMmxF-14" target="wWNHtJIBtszE9w1KMmxF-13">
          <mxGeometry relative="1" as="geometry">
            <Array as="points">
              <mxPoint x="507" y="660" />
              <mxPoint x="630" y="660" />
              <mxPoint x="630" y="720" />
              <mxPoint x="289" y="720" />
              <mxPoint x="289" y="590" />
              <mxPoint x="290" y="590" />
              <mxPoint x="290" y="586" />
            </Array>
          </mxGeometry>
        </mxCell>
        <mxCell id="IhIsR1QIYRkQV1s-NoY3-11" value="оферта" style="edgeLabel;html=1;align=center;verticalAlign=middle;resizable=0;points=[];" vertex="1" connectable="0" parent="IhIsR1QIYRkQV1s-NoY3-10">
          <mxGeometry x="0.0307" y="-4" relative="1" as="geometry">
            <mxPoint x="-42" as="offset" />
          </mxGeometry>
        </mxCell>
        <mxCell id="IhIsR1QIYRkQV1s-NoY3-17" style="edgeStyle=orthogonalEdgeStyle;rounded=0;orthogonalLoop=1;jettySize=auto;html=1;exitX=0.33;exitY=0;exitDx=0;exitDy=0;exitPerimeter=0;entryX=0.5;entryY=1;entryDx=0;entryDy=0;strokeColor=light-dark(#000000,#660000);strokeWidth=5;startArrow=classic;startFill=1;" edge="1" parent="1" source="wWNHtJIBtszE9w1KMmxF-16" target="wWNHtJIBtszE9w1KMmxF-1">
          <mxGeometry relative="1" as="geometry" />
        </mxCell>
        <mxCell id="IhIsR1QIYRkQV1s-NoY3-18" value="Расчет&lt;br&gt;индивидуальной&lt;br&gt;ставки" style="edgeLabel;html=1;align=center;verticalAlign=middle;resizable=0;points=[];" vertex="1" connectable="0" parent="IhIsR1QIYRkQV1s-NoY3-17">
          <mxGeometry x="0.1109" y="-1" relative="1" as="geometry">
            <mxPoint x="-7" y="21" as="offset" />
          </mxGeometry>
        </mxCell>
        <mxCell id="wWNHtJIBtszE9w1KMmxF-7" value="email" style="rounded=1;whiteSpace=wrap;html=1;fillColor=light-dark(#D80073,#CCFFE6);fontColor=#ffffff;strokeColor=light-dark(#A50040,#333333);opacity=40;fontSize=18;fontStyle=1" parent="1" vertex="1">
          <mxGeometry x="590" y="540" width="109" height="200" as="geometry" />
        </mxCell>
        <mxCell id="IhIsR1QIYRkQV1s-NoY3-32" value="excel" style="rounded=1;whiteSpace=wrap;html=1;fillColor=light-dark(#D80073,#CCFFE6);fontColor=#ffffff;strokeColor=light-dark(#A50040,#333333);opacity=40;fontSize=18;fontStyle=1" vertex="1" parent="1">
          <mxGeometry x="708" y="780" width="110" height="100" as="geometry" />
        </mxCell>
      </root>
    </mxGraphModel>
  </diagram>
</mxfile>
